<?xml version="1.0" encoding="UTF-8" standalone="no"?>
<!-- Created with Inkscape (http://www.inkscape.org/) -->

<svg
   version="1.1"
   id="svg1"
   width="365.02026"
   height="58.042999"
   viewBox="0 0 365.02026 58.042999"
   xml:space="preserve"
   xmlns="http://www.w3.org/2000/svg"
   xmlns:svg="http://www.w3.org/2000/svg"><defs
     id="defs1" /><g
     id="g1"
     transform="translate(-72.247833,-197.87022)"><path
       style="fill:#ffffff"
       d="m 79.034098,254.49293 c -6.01139,-1.61443 -6.24172,-1.87618 -4.28242,-4.86646 1.54667,-2.3605 1.7691,-2.40461 5.55255,-1.10111 5.98259,2.06117 10.99605,-0.72201 10.99605,-6.10437 0,-1.47687 -0.19941,-1.48277 -2.2225,-0.0657 -4.86916,3.41049 -12.88605,1.29752 -15.66046,-4.12755 -2.70091,-5.28135 -0.4587,-14.99216 4.01442,-17.3861 3.03981,-1.62685 8.51764,-1.38959 11.39145,0.49341 2.17475,1.42495 2.47709,1.43716 2.47709,0.1 0,-1.11023 1.0842,-1.52305 4,-1.52305 h 4 v 12.53212 c 0,8.5687 -0.44947,13.60786 -1.42122,15.93358 -2.40769,5.7624 -10.44609,8.3709 -18.84496,6.11527 z m 9.81164,-18.03552 c 3.07267,-3.07267 3.1085,-5.67366 0.12592,-9.14111 -1.80154,-2.09442 -2.89447,-2.56517 -4.82856,-2.07974 -2.42967,0.60981 -4.84281,4.23136 -4.84281,7.2679 0,1.72886 4.38109,6.4075 6,6.4075 0.6,0 2.19545,-1.10455 3.54545,-2.45455 z m 132.909092,17 c -1.35,-1.35 -2.45455,-3.5077 -2.45455,-4.7949 0,-2.68677 20.82054,-38.81515 24.8337,-43.09214 1.46647,-1.56287 4.4663,-3.81287 6.6663,-5 l 4,-2.15841 88.58862,-0.27087 88.58862,-0.27086 2.66138,2.09344 c 4.72279,3.71495 3.82906,6.54862 -8.87949,28.15349 -11.92455,20.27203 -14.86,23.73958 -22.36892,26.42368 -2.74157,0.97998 -15.94085,1.29371 -55.84021,1.32722 l -52.25,0.0439 v -6.52306 -6.52305 l 2.47709,1.62305 c 8.28322,5.42738 19.42417,-2.78246 18.09528,-13.33451 -1.24078,-9.85246 -9.53693,-14.89772 -17.62203,-10.71675 -2.6672,1.37926 -2.95034,1.37374 -2.95034,-0.0575 0,-1.24413 -0.91016,-1.51733 -4.25,-1.27568 l -4.25,0.3075 v 18.25063 18.25064 l -31.29545,-6.4e-4 -31.29546,-6.3e-4 z m 32.58965,-10.08545 c 1.98093,-1.79272 1.98064,-1.80466 -0.0983,-4.01764 -1.92423,-2.04825 -2.30578,-2.10952 -4.94325,-0.79378 -3.4281,1.71017 -7.64406,0.88987 -9.06416,-1.76361 -0.9555,-1.78537 -0.50497,-1.88497 8.52637,-1.88497 h 9.53519 v -2.53212 c 0,-10.25643 -10.80757,-16.50022 -20.55467,-11.87492 -3.5328,1.67643 -7.44533,8.11638 -7.44533,12.25488 0,3.18534 2.37571,8.34185 4.86526,10.56011 4.16678,3.71272 15.10115,3.74239 19.17894,0.0521 z m -14.39516,-14.98778 c 0.60363,-1.57305 3.45538,-3.47222 5.21379,-3.47222 1.25464,0 4.13717,2.83673 4.13717,4.07143 0,0.51071 -2.23587,0.92857 -4.96861,0.92857 -4.04586,0 -4.85974,-0.28374 -4.38235,-1.52778 z m 112.68857,14.72225 c 9.53349,-8.62769 3.35417,-24.19447 -9.60412,-24.19447 -9.01844,0 -14.72289,5.52434 -14.72975,14.26468 -0.007,9.0441 8.32514,14.67028 18.48149,12.47927 2.19187,-0.47285 4.82544,-1.62012 5.85238,-2.54948 z m -14.2722,-6.07227 c -1.942,-3.62864 -1.29066,-7.92851 1.47556,-9.741 5.02532,-3.29272 10.05105,2.16586 7.83447,8.50923 -1.21975,3.49065 -7.64608,4.34089 -9.31003,1.23177 z m 59.68459,7.0177 c 2.76815,-1.48898 2.78545,-1.94105 0.18034,-4.71405 -1.95845,-2.08468 -2.23634,-2.11991 -5.17162,-0.6556 -2.69503,1.34446 -3.4297,1.36264 -5.60017,0.13861 -5.23148,-2.9503 -3.81942,-3.90886 5.75812,-3.90886 h 9.08333 v -3.35212 c 0,-3.9192 -3.50283,-9.5838 -7.03001,-11.36857 -5.16701,-2.61454 -11.86133,-1.40541 -16.71999,3.01996 l -2.25,2.04936 v -3.17432 c 0,-3.84553 -2.35807,-4.25369 -6.36514,-1.10173 l -2.63486,2.07258 v -2.13008 c 0,-1.88754 -0.48391,-2.09507 -4.25,-1.82258 l -4.25,0.3075 -0.27902,13.25 -0.27903,13.25 h 4.52903 4.52902 v -6.56574 c 0,-8.48926 1.94037,-12.38048 6.19274,-12.41895 1.36561,-0.0123 1.68546,0.92508 1.65505,4.85073 -0.043,5.55812 2.1455,10.52267 5.41256,12.27796 5.1169,2.74915 12.37427,2.74745 17.48965,-0.004 z m -13.75,-15.66134 c 0,-2.33726 4.29269,-3.92747 6.87351,-2.54626 3.80483,2.03628 2.6195,4.0677 -2.37351,4.0677 -3.36151,0 -4.5,-0.38492 -4.5,-1.52144 z m -116,14.02144 c 1.18972,-1.925 2.47409,-3.5 2.85416,-3.5 0.38007,0 1.53923,1.575 2.57591,3.5 1.75491,3.25867 2.21877,3.5 6.7274,3.5 2.66339,0 4.84253,-0.19901 4.84253,-0.44225 0,-0.24323 -1.83418,-3.36759 -4.07596,-6.94301 l -4.07597,-6.50076 4.07597,-6.00212 c 2.24178,-3.30117 4.07596,-6.25182 4.07596,-6.55699 0,-0.30518 -2.02086,-0.55487 -4.4908,-0.55487 -4.0308,0 -4.72223,0.35725 -6.75,3.48762 -1.24256,1.91819 -2.52584,3.49319 -2.85173,3.5 -0.32589,0.007 -1.44072,-1.56262 -2.4774,-3.48762 -1.74906,-3.24781 -2.22877,-3.5 -6.65747,-3.5 -2.62493,0 -4.77117,0.3375 -4.76942,0.75 0.002,0.4125 1.77781,3.41921 3.9468,6.68158 2.16899,3.26237 3.66419,6.41237 3.32267,7 -0.34152,0.58763 -2.35934,3.65592 -4.48406,6.81842 l -3.86311,5.75 h 4.9557 c 4.58497,0 5.11752,-0.26183 7.11882,-3.5 z m 58,-15 v -18.5 h -4.5 -4.5 v 18.5 18.5 h 4.5 4.5 z m 86.15557,10.41101 c 0.39627,-8.72588 1.70513,-10.91101 6.53556,-10.91101 2.02702,0 2.30887,-0.4883 2.30887,-4 0,-3.23693 -0.35581,-4 -1.86514,-4 -1.02583,0 -3.05083,0.93266 -4.5,2.07258 l -2.63486,2.07258 v -2.13008 c 0,-1.88754 -0.48391,-2.09507 -4.25,-1.82258 l -4.25,0.3075 -0.27902,13.25 -0.27903,13.25 h 4.42314 4.42314 z m -309.15557,-4.91101 v -13 h 4 4 v 13 13 h -4 -4 z m 16.18856,10.96104 c -1.89739,-1.76769 -2.18856,-3.09808 -2.18856,-10 0,-7.29438 -0.16748,-7.96104 -2,-7.96104 -1.46666,0 -2,-0.66667 -2,-2.5 0,-1.83334 0.53334,-2.5 2,-2.5 1.61905,0 2,-0.66667 2,-3.5 0,-3.41667 0.0952,-3.5 4,-3.5 3.89072,0 4,0.0939 4,3.43664 0,3.14629 0.27458,3.46311 3.25,3.75 2.47888,0.23901 3.25,0.78789 3.25,2.31336 0,1.53116 -0.77222,2.07423 -3.29417,2.31665 l -3.29417,0.31665 0.29417,6.68335 c 0.2878,6.53847 0.35157,6.67957 2.94207,6.50906 2.13673,-0.14064 2.74649,0.34149 3.15863,2.49746 0.62556,3.27242 -0.60011,4.14165 -5.86797,4.16151 -2.72096,0.0103 -4.78377,-0.65764 -6.25,-2.02364 z m 14.81144,-15.96104 v -18 h 4 4 v 6.5 c 0,6.47209 0.72129,7.74568 2.89998,5.12051 3.23988,-3.90381 13.25073,-1.98451 15.10638,2.89622 0.5465,1.43741 0.99364,6.85917 0.99364,12.04837 v 9.4349 h -4 -4 v -8.47695 c 0,-7.87629 -0.17239,-8.5899 -2.43294,-10.07107 -1.91725,-1.25623 -2.88123,-1.35421 -4.54787,-0.46225 -2.91391,1.55948 -4.01919,5.01769 -4.01919,12.57537 v 6.4349 h -4 -4 z m 34.36408,16.83041 c -3.35152,-1.62284 -4.36408,-5.19074 -4.36408,-15.37747 v -9.45294 h 4 4 v 8.3 c 0,8.82749 0.81258,10.7 4.6433,10.7 3.7125,0 5.3567,-3.59815 5.3567,-11.72251 v -7.27749 h 4 4 v 13 13 h -4 c -3.38002,0 -4,-0.32124 -4,-2.07258 v -2.07258 l -2.63486,2.07258 c -2.81401,2.2135 -7.50016,2.59815 -11.00106,0.90299 z m 26.63592,-16.83041 v -18 h 4 4 v 6.65498 c 0,6.54594 0.0321,6.62593 1.95962,4.88156 2.47968,-2.24408 9.29496,-2.25498 12.70549,-0.0203 1.37607,0.90164 3.13936,3.16488 3.91842,5.02944 5.05279,12.09304 -5.07998,23.61706 -15.83353,18.00748 -2.39128,-1.24741 -2.75,-1.24661 -2.75,0.006 0,1.01415 -1.18429,1.4407 -4,1.4407 h -4 z m 17.92742,9.36514 c 2.46995,-3.14003 2.63772,-6.11329 0.51588,-9.14264 -1.84865,-2.6393 -6.5394,-2.98354 -8.87187,-0.65107 -2.23432,2.23431 -1.99726,8.00274 0.42857,10.42857 2.72827,2.72826 5.45367,2.51 7.92742,-0.63486 z m 83.99503,0.0414 c -2.00756,-2.41896 -1.66894,-8.38754 0.56868,-10.02372 4.22656,-3.09054 8.90887,-0.51176 8.90887,4.90655 0,4.41648 -1.84608,6.71062 -5.4,6.71062 -1.51531,0 -3.35021,-0.71705 -4.07755,-1.59345 z M 103.68982,214.48468 c -0.30124,-0.785 -0.39961,-2.4725 -0.21862,-3.75 0.27276,-1.92519 0.9281,-2.32272 3.82908,-2.32272 2.89322,0 3.55665,0.39961 3.82677,2.30504 0.17972,1.26777 -0.21288,2.95527 -0.87245,3.75 -1.5432,1.85944 -5.85358,1.87105 -6.56478,0.0177 z"
       id="path1" /></g></svg>
